<svg width="23" height="19" viewBox="0 0 23 19" fill="none" xmlns="http://www.w3.org/2000/svg">
<path d="M0 9.45703C0 9.9375 0.210938 10.4414 0.539062 10.7578L8.14453 18.3633C8.51953 18.7383 8.96484 18.9258 9.38672 18.9258C10.4297 18.9258 11.1211 18.2109 11.1211 17.2617C11.1211 16.7227 10.8984 16.3125 10.5703 15.9961L7.89844 13.3242L5.48438 11.0859L8.00391 11.2266L21.1055 11.2266C22.207 11.2266 22.9453 10.5117 22.9453 9.45703C22.9453 8.40234 22.207 7.69922 21.1055 7.69922L8.00391 7.69922L5.47266 7.82812L7.89844 5.60156L10.5703 2.94141C10.8867 2.61328 11.1211 2.20312 11.1211 1.67578C11.1211 0.726562 10.4297 0 9.38672 0C8.96484 0 8.53125 0.1875 8.15625 0.550781L0.539062 8.16797C0.210938 8.48437 0 8.98828 0 9.45703Z" fill="#EEEEEE"/>
</svg>
